<svg xmlns="http://www.w3.org/2000/svg" xmlns:svg="http://www.w3.org/2000/svg" width="793.701" height="1122.52"><link xmlns="" type="text/css" rel="stylesheet" id="dark-mode-custom-link"/><link xmlns="" type="text/css" rel="stylesheet" id="dark-mode-general-link"/><style xmlns="" lang="en" type="text/css" id="dark-mode-custom-style"/><style xmlns="" lang="en" type="text/css" id="dark-mode-native-style"/>
 <title>right-arrow</title>
 <g>
  <title>Layer 1</title>
  <g id="layer1">
   <path d="m408.91101,274.133c-19.66101,0 -39.29501,5.72699 -54.362,17.125c-30.13602,22.798 -30.13602,59.48401 0,82.28201l154.203,116.685l-356.88601,0c-42.618,0 -76.9193,25.98001 -76.9193,58.22c0,32.23999 34.3013,58.18896 76.9193,58.18896l356.92599,0l-154.24298,116.68604c-30.13602,22.797 -30.13602,59.48401 0,82.281c30.13498,22.797 78.62997,22.797 108.76498,0l285.56601,-216.031c30.13501,-22.797 30.13501,-59.48401 0,-82.28101l-285.56601,-216.031c-15.06698,-11.39801 -34.742,-17.125 -54.40298,-17.125z" stroke-width="15.325" stroke-miterlimit="4" stroke-dashoffset="0" stroke="#7f7f7f" fill-rule="evenodd" fill="#7f7f7f" id="rect1061"/>
  </g>
 </g>
<script xmlns=""/></svg>